<svg width="21" height="21" viewBox="0 0 21 21" fill="none" xmlns="http://www.w3.org/2000/svg">
<g clip-path="url(#clip0_44_12)">
<path d="M20.1985 13.5165C20.1985 15.4261 19.1383 16.9743 17.0552 16.9743H3.22427C1.14115 16.9743 0.0808868 15.4261 0.0808868 13.5165V6.6011C0.0808868 4.6915 1.14115 3.14338 3.22427 3.14338H17.0552C19.1383 3.14338 20.1985 4.6915 20.1985 6.6011V13.5165Z" fill="#128807"/>
<path d="M18.0422 10.3071L10.1869 15.8269L2.33124 10.3071L10.1869 4.78737L18.0422 10.3071Z" fill="#F9CB38"/>
<path fill-rule="evenodd" clip-rule="evenodd" d="M13.2862 11.2684C12.9285 12.4839 11.8092 13.4094 10.5418 13.5351C8.84841 13.7045 7.36694 12.6282 7.0067 10.9644C6.90007 10.4755 6.91366 9.968 7.04631 9.48548C7.09566 9.43204 7.16387 9.41915 7.23177 9.40972C7.727 9.34051 8.22771 9.31872 8.72708 9.34465C9.25988 9.37483 9.78828 9.4487 10.3019 9.59392C10.8291 9.74323 11.3395 9.93812 11.8214 10.1971C12.1841 10.3897 12.5305 10.6115 12.8572 10.8604C12.9678 10.9462 13.0807 11.0304 13.1869 11.1219C13.2344 11.1628 13.2718 11.2068 13.2862 11.2684Z" fill="#002776"/>
<path fill-rule="evenodd" clip-rule="evenodd" d="M7.22392 8.99353C7.62973 8.08667 8.31404 7.48282 9.25988 7.19929C11.1648 6.62814 13.119 7.88706 13.4022 9.85042C13.4462 10.1538 13.4481 10.458 13.4016 10.762C13.3535 10.7799 13.3177 10.7545 13.2847 10.7271C12.9394 10.445 12.5711 10.1924 12.1835 9.97207C11.8851 9.80271 11.575 9.6548 11.2556 9.52948C11.199 9.50716 11.128 9.49553 11.1085 9.41977C11.1289 9.38331 11.1547 9.35156 11.1855 9.32202C11.1965 9.3107 11.2126 9.2997 11.1978 9.28084C11.1927 9.27486 11.1824 9.27487 11.1736 9.27581C11.15 9.27832 11.1531 9.29467 11.1541 9.31196C11.156 9.36822 11.1233 9.40437 11.0802 9.43329C11.0038 9.45058 10.9306 9.42763 10.8687 9.39463C10.6914 9.30158 10.4952 9.26984 10.3076 9.21797C10.0149 9.13844 9.71442 9.09349 9.41454 9.04666C9.1752 9.00851 8.93428 8.98103 8.6925 8.9643C8.47247 8.9489 8.24834 8.9511 8.02673 8.96618C7.78501 8.98316 7.54265 9.00013 7.30218 9.02905C7.2871 9.03137 7.27166 9.02925 7.25776 9.02294C7.24386 9.01663 7.2321 9.00641 7.22392 8.99353Z" fill="#002776"/>
<path fill-rule="evenodd" clip-rule="evenodd" d="M11.111 9.40029C11.1098 9.43864 11.144 9.43361 11.1648 9.44178C11.9765 9.7575 12.7314 10.2034 13.3997 10.762C13.3805 10.9345 13.3424 11.1043 13.2859 11.2684C12.8927 10.9421 12.49 10.6312 12.0446 10.3773C10.6367 9.57537 9.12912 9.25758 7.5175 9.42795C7.36034 9.44398 7.20317 9.46535 7.046 9.48453C7.08655 9.31447 7.1381 9.14756 7.22266 8.9929C8.39922 8.83416 9.55536 8.92438 10.6898 9.27549C10.8306 9.31919 10.9649 9.3896 11.1151 9.4028L11.111 9.39934" fill="#FEFEFE"/>
<path fill-rule="evenodd" clip-rule="evenodd" d="M12.5758 11.4262C12.4812 11.4161 12.584 11.5321 12.4885 11.5296C12.4052 11.5284 12.4008 11.4617 12.3599 11.4246C12.3913 11.3919 12.447 11.3853 12.4646 11.3344C12.4765 11.3882 12.5271 11.3995 12.5758 11.4262Z" fill="#D9DFEA"/>
<path fill-rule="evenodd" clip-rule="evenodd" d="M9.00621 12.0077C8.91725 12.0181 8.99175 12.1149 8.91725 12.1165C8.84213 12.1181 8.80346 12.0624 8.78837 12.0049C8.78303 11.9885 8.85533 11.9521 8.89085 11.925C8.89525 11.9819 8.95434 11.9794 9.00621 12.0077Z" fill="#E9ECF3"/>
<path fill-rule="evenodd" clip-rule="evenodd" d="M10.1837 11.8326C10.0602 11.9125 10.1598 11.732 10.0872 11.7497C10.1108 11.7119 10.1774 11.7207 10.1818 11.6629C10.2133 11.6956 10.24 11.7333 10.29 11.7402C10.2186 11.7305 10.2963 11.8889 10.1837 11.8326Z" fill="#EDEFF5"/>
<path fill-rule="evenodd" clip-rule="evenodd" d="M7.63129 9.71463C7.60174 9.77089 7.57942 9.83376 7.48984 9.79604C7.44395 9.77686 7.49298 9.714 7.43797 9.70803L7.53982 9.61844L7.56182 9.66213C7.56999 9.69954 7.64449 9.64987 7.63129 9.71463Z" fill="#F0F2F6"/>
<path fill-rule="evenodd" clip-rule="evenodd" d="M7.9164 11.0804C7.86957 11.0952 7.9032 11.2184 7.80261 11.1647C7.79255 11.1596 7.74855 11.1838 7.75672 11.1697C7.78312 11.1181 7.72403 11.093 7.73314 11.0518C7.78815 11.0757 7.78501 10.9751 7.84128 11.0022C7.84536 11.0053 7.84536 11.0179 7.84819 11.026C7.85416 11.065 7.93023 11.0163 7.9164 11.0804Z" fill="#ECEFF4"/>
<path fill-rule="evenodd" clip-rule="evenodd" d="M7.42194 11.4444C7.32544 11.4781 7.39743 11.3614 7.3421 11.3624C7.36788 11.3407 7.3968 11.3001 7.42257 11.3017C7.45338 11.3033 7.48167 11.3413 7.50996 11.363C7.46784 11.3772 7.51216 11.4913 7.42194 11.4444Z" fill="#D9DFEA"/>
<path fill-rule="evenodd" clip-rule="evenodd" d="M11.1519 12.5569C11.0497 12.6034 11.1491 12.466 11.0808 12.4839C11.0739 12.4315 11.1591 12.4632 11.1484 12.4079L11.2405 12.4817C11.2031 12.4987 11.2405 12.6056 11.1519 12.5569Z" fill="#D8DEEA"/>
<path fill-rule="evenodd" clip-rule="evenodd" d="M11.8057 12.4811C11.7211 12.5163 11.773 12.4025 11.7274 12.3912C11.7582 12.3714 11.7906 12.3504 11.8208 12.3299C11.8233 12.3764 11.8871 12.3595 11.894 12.4006C11.8466 12.4035 11.8959 12.506 11.8057 12.4811ZM12.3935 12.058C12.2973 12.1067 12.3684 11.9788 12.3134 11.9841C12.3244 11.9433 12.3875 11.9587 12.3913 11.9115L12.4815 11.9791C12.4265 11.9775 12.4941 12.1124 12.3935 12.058Z" fill="#DCE1EC"/>
<path fill-rule="evenodd" clip-rule="evenodd" d="M8.49981 11.4711C8.39922 11.528 8.46492 11.4007 8.4184 11.3982C8.42311 11.3514 8.49415 11.3715 8.49729 11.3218C8.50672 11.3677 8.56771 11.3545 8.58091 11.3957C8.52087 11.3869 8.60637 11.5312 8.49981 11.4711Z" fill="#D4DAE7"/>
<path fill-rule="evenodd" clip-rule="evenodd" d="M8.90751 10.5162C8.85062 10.5124 8.92354 10.4228 8.85376 10.4285C8.8657 10.3782 8.91946 10.3886 8.949 10.3625C8.96409 10.3942 9.00684 10.4015 9.00904 10.447C9.01407 10.5303 8.9402 10.4873 8.90751 10.5162Z" fill="#F2F4F7"/>
<path fill-rule="evenodd" clip-rule="evenodd" d="M10.5641 11.1801C10.477 11.2301 10.5229 11.1185 10.4827 11.1062L10.5641 11.0374C10.566 11.0839 10.6549 11.0735 10.6298 11.1093C10.6147 11.1307 10.6634 11.2285 10.5641 11.1801Z" fill="#E6E9F1"/>
<path fill-rule="evenodd" clip-rule="evenodd" d="M10.1743 10.9C10.075 10.9101 10.1774 10.8198 10.113 10.822C10.1381 10.7985 10.1623 10.7582 10.1906 10.7557C10.2152 10.7532 10.2434 10.7931 10.2702 10.8151C10.2353 10.8488 10.2406 10.9355 10.1743 10.9Z" fill="#EAEDF3"/>
<path fill-rule="evenodd" clip-rule="evenodd" d="M12.5859 11.6337C12.6063 11.6877 12.6466 11.695 12.678 11.7141C12.6459 11.7503 12.6334 11.8056 12.5667 11.8056C12.4985 11.8062 12.5447 11.7544 12.5293 11.7302C12.4913 11.6698 12.6318 11.7207 12.5859 11.6337Z" fill="#E4E8F0"/>
<path fill-rule="evenodd" clip-rule="evenodd" d="M11.8742 12.7288C11.8503 12.7643 11.8667 12.7983 11.8032 12.7995C11.7306 12.8008 11.7538 12.7477 11.7507 12.7313C11.7447 12.7043 11.7862 12.6785 11.8101 12.6839C11.8308 12.6876 11.8711 12.6993 11.8742 12.7288Z" fill="#CED5E4"/>
<path fill-rule="evenodd" clip-rule="evenodd" d="M8.47812 11.7217C8.42625 11.7277 8.46932 11.7955 8.40362 11.7933C8.34358 11.7915 8.35238 11.7509 8.34578 11.7264C8.33541 11.6921 8.38602 11.6931 8.39734 11.6673C8.42123 11.684 8.44543 11.7006 8.47812 11.7217Z" fill="#DAE0EB"/>
<path fill-rule="evenodd" clip-rule="evenodd" d="M11.7334 12.0806C11.7556 12.0643 11.7784 12.0484 11.8016 12.0329C11.8035 12.0678 11.8786 12.0476 11.8535 12.0923C11.8431 12.1102 11.8686 12.1592 11.8035 12.1548C11.745 12.1507 11.7589 12.1099 11.7334 12.0806Z" fill="#D8DEE9"/>
<path fill-rule="evenodd" clip-rule="evenodd" d="M11.4945 12.1885C11.4832 12.2504 11.448 12.2605 11.4093 12.2677C11.3436 12.2787 11.393 12.2293 11.3823 12.2105C11.3546 12.1633 11.4244 12.1724 11.4326 12.1416C11.4508 12.1655 11.4926 12.1649 11.4945 12.1885Z" fill="#CBD2E3"/>
<path fill-rule="evenodd" clip-rule="evenodd" d="M11.1267 10.15C11.1047 10.1604 11.134 10.2129 11.0868 10.1978C11.051 10.1855 11.007 10.1685 11.0101 10.1245C11.0114 10.1075 11.0541 10.0934 11.078 10.0786C11.0821 10.1104 11.15 10.1 11.1267 10.15Z" fill="#D1D8E6"/>
<path fill-rule="evenodd" clip-rule="evenodd" d="M12.9056 11.5287C12.8465 11.5519 12.8732 11.5032 12.8628 11.4891C12.8232 11.4353 12.9015 11.4432 12.9056 11.4111C12.9298 11.4271 12.9769 11.4454 12.975 11.4592C12.9737 11.4772 12.9659 11.4941 12.9532 11.5068C12.9404 11.5195 12.9235 11.5273 12.9056 11.5287Z" fill="#DADFEA"/>
<path fill-rule="evenodd" clip-rule="evenodd" d="M9.86624 11.049C9.86624 11.0855 9.93979 11.071 9.91496 11.1166C9.9049 11.1351 9.92628 11.1848 9.87535 11.1744C9.83669 11.1666 9.79771 11.1439 9.79646 11.1056C9.79646 11.0877 9.84109 11.0685 9.86624 11.049Z" fill="#CAD2E2"/>
<path fill-rule="evenodd" clip-rule="evenodd" d="M10.8721 12.1863C10.8432 12.1728 10.8419 12.1347 10.8438 12.1165C10.847 12.0923 10.8794 12.0596 10.907 12.0728C10.924 12.081 10.9721 12.0762 10.9605 12.1203C10.9498 12.1624 10.9076 12.1683 10.8721 12.1863Z" fill="#D0D7E5"/>
<path fill-rule="evenodd" clip-rule="evenodd" d="M12.0886 12.1309C12.0899 12.1306 12.1119 12.1001 12.1367 12.0995C12.1546 12.0989 12.1728 12.136 12.192 12.1567C12.1662 12.1639 12.1883 12.2114 12.1373 12.2108C12.0914 12.2098 12.0914 12.1891 12.0886 12.1309Z" fill="#EFF2F6"/>
<path fill-rule="evenodd" clip-rule="evenodd" d="M10.0662 11.335C10.0577 11.369 10.0577 11.39 10.0275 11.3894C9.99669 11.3888 9.9816 11.3775 9.98223 11.346C9.98223 11.3212 9.99857 11.3039 10.0171 11.3055C10.0385 11.3071 10.069 11.313 10.0662 11.335Z" fill="#CCD4E3"/>
<path fill-rule="evenodd" clip-rule="evenodd" d="M8.13864 10.8459C8.15373 10.8623 8.17102 10.8752 8.17762 10.8918C8.18327 10.9057 8.17447 10.9267 8.15498 10.9289C8.13329 10.9308 8.11003 10.9302 8.10312 10.9031C8.09683 10.8767 8.11978 10.8673 8.13864 10.8459Z" fill="#E0E5EE"/>
<path fill-rule="evenodd" clip-rule="evenodd" d="M7.9164 11.0804C7.90791 11.0443 7.85196 11.0672 7.84819 11.0257C7.86014 11.0572 7.95349 10.9871 7.9164 11.0804Z" fill="#7085B1"/>
<path fill-rule="evenodd" clip-rule="evenodd" d="M7.6313 9.71463C7.62438 9.67596 7.56497 9.70645 7.56183 9.66213C7.57849 9.68854 7.66273 9.62598 7.6313 9.71463Z" fill="#5C75A7"/>
<path fill-rule="evenodd" clip-rule="evenodd" d="M11.1173 9.40374C11.1233 9.37985 11.1425 9.34088 11.1349 9.33365C11.0324 9.24249 11.1692 9.22708 11.1896 9.20854C11.227 9.17239 11.221 9.32484 11.3197 9.22834C11.2666 9.34622 11.1956 9.38017 11.1138 9.40029L11.1173 9.40374Z" fill="#E7EAF2"/>
<path fill-rule="evenodd" clip-rule="evenodd" d="M8.0874 9.30599C7.98744 9.29624 8.0764 9.16611 8.05471 9.09066C8.02768 8.99322 8.09872 8.99448 8.16787 8.99416C8.27506 8.99353 8.33573 9.0388 8.33573 9.15196C8.33542 9.26324 8.28386 9.30724 8.0874 9.30599Z" fill="#15A24A"/>
<path fill-rule="evenodd" clip-rule="evenodd" d="M11.9066 9.93403C11.8846 10.0013 11.8032 10.0434 11.7894 10.1264C11.7881 10.1374 11.7567 10.1352 11.7507 10.1031C11.7256 9.95289 11.7243 9.95321 11.6133 10.0337C11.6045 10.0403 11.5891 10.0463 11.5806 10.0434C11.5643 10.0362 11.5577 10.0198 11.5674 10.0013C11.6042 9.92963 11.6388 9.85608 11.68 9.78661C11.7076 9.74071 11.7413 9.77906 11.7683 9.79227C11.8277 9.8215 11.901 9.83816 11.9066 9.93403Z" fill="#13A248"/>
<path fill-rule="evenodd" clip-rule="evenodd" d="M12.1879 10.1786C12.1301 10.2019 12.1021 10.1582 12.065 10.1424C12.0399 10.1318 12.0163 10.1217 11.9993 10.1497C11.9808 10.1792 11.9993 10.1962 12.0248 10.2094C12.0443 10.2191 12.065 10.2267 12.0795 10.2421C12.105 10.2688 12.1848 10.2616 12.1524 10.3185C12.127 10.3637 12.0842 10.3109 12.0559 10.2943C12.0072 10.2644 11.9107 10.2481 11.9211 10.1962C11.9371 10.1129 11.9846 10.0224 12.0477 9.96515C12.0984 9.91926 12.1543 10.006 12.2112 10.0277C12.2357 10.0368 12.2775 10.045 12.2703 10.0837C12.2634 10.1236 12.2338 10.1003 12.2112 10.095C12.1581 10.0827 12.1065 9.99282 12.0647 10.0551C12.0396 10.0921 12.143 10.1075 12.1757 10.1484C12.1807 10.1544 12.182 10.1626 12.1879 10.1786ZM12.8653 10.6231C12.8748 10.6966 12.8449 10.7466 12.7679 10.734C12.6881 10.7208 12.6274 10.6721 12.6136 10.5847C12.6123 10.5759 12.623 10.558 12.6318 10.5555C12.6369 10.5538 12.6422 10.5533 12.6475 10.5539C12.6528 10.5546 12.6579 10.5564 12.6624 10.5592C12.6669 10.562 12.6708 10.5658 12.6737 10.5702C12.6766 10.5747 12.6785 10.5798 12.6793 10.585C12.6893 10.6451 12.7207 10.6718 12.7839 10.673C12.7962 10.5747 12.6186 10.5297 12.7207 10.4275C12.772 10.3763 12.8345 10.4187 12.8792 10.4599C12.9204 10.4973 12.9706 10.5385 12.8955 10.5919C12.8848 10.5863 12.8704 10.5772 12.8625 10.5835C12.8465 10.5941 12.8622 10.6095 12.8653 10.6231Z" fill="#11A147"/>
<path fill-rule="evenodd" clip-rule="evenodd" d="M10.6942 9.68696C10.6568 9.6659 10.6587 9.64579 10.6647 9.62378C10.6766 9.57695 10.6524 9.55243 10.6097 9.53923C10.5669 9.52539 10.5339 9.52728 10.5223 9.58072C10.5182 9.60461 10.5056 9.62127 10.4795 9.61247C10.4493 9.60146 10.4644 9.57695 10.4701 9.55903C10.482 9.51785 10.4927 9.47636 10.5116 9.43707C10.5286 9.39777 10.5166 9.32579 10.5785 9.3305C10.6442 9.33522 10.7153 9.35094 10.7652 9.40532C10.7876 9.42921 10.7967 9.47039 10.7785 9.4883C10.7253 9.543 10.7297 9.62032 10.6942 9.68696Z" fill="#0FA046"/>
<path fill-rule="evenodd" clip-rule="evenodd" d="M8.75442 9.28681C8.65289 9.32516 8.57274 9.30284 8.49447 9.30441C8.45895 9.30535 8.4558 9.27864 8.4558 9.2516C8.4579 9.22164 8.45874 9.19167 8.45832 9.1617C8.46209 8.99605 8.52087 8.95361 8.6837 8.99982C8.70193 9.00485 8.71922 9.00799 8.72048 9.02842C8.72048 9.05671 8.70004 9.06174 8.6749 9.06111C8.67133 9.06028 8.66735 9.05996 8.66295 9.06017C8.61423 9.07212 8.52684 9.01711 8.52527 9.09003C8.52339 9.14599 8.61863 9.10638 8.66735 9.12524C8.67385 9.12838 8.68223 9.13404 8.6925 9.14221C8.66169 9.19785 8.61046 9.16673 8.57085 9.17333C8.54728 9.1771 8.51647 9.16673 8.51301 9.20508C8.50861 9.25035 8.54005 9.24815 8.57085 9.25129C8.62335 9.25758 8.68024 9.23777 8.75442 9.28681Z" fill="#0B9F43"/>
<path fill-rule="evenodd" clip-rule="evenodd" d="M7.91986 9.3107C7.86516 9.29876 7.87271 9.26732 7.86328 9.24532C7.84693 9.20477 7.81456 9.20477 7.77904 9.2076C7.73849 9.21137 7.71648 9.22709 7.71994 9.27204C7.72245 9.29404 7.73126 9.32956 7.69039 9.32453C7.65519 9.32013 7.66524 9.28587 7.66336 9.26261C7.66022 9.22457 7.65644 9.18559 7.66022 9.14787C7.66524 9.10575 7.62501 9.04131 7.68568 9.02622C7.74823 9.00988 7.82053 8.99825 7.8856 9.02937C7.91389 9.04288 7.9362 9.07589 7.92583 9.10261C7.90194 9.16988 7.9208 9.23809 7.91986 9.3107Z" fill="#079D3F"/>
<path fill-rule="evenodd" clip-rule="evenodd" d="M7.25629 9.20383C7.26635 9.11864 7.30375 9.04949 7.39711 9.05263C7.4867 9.05546 7.53448 9.1177 7.53448 9.20729C7.53448 9.29624 7.49298 9.35754 7.39837 9.35691C7.30218 9.35628 7.26949 9.2865 7.25629 9.20383Z" fill="#15A24A"/>
<path fill-rule="evenodd" clip-rule="evenodd" d="M13.2403 10.8007C13.2315 10.8852 13.1897 10.949 13.0932 10.9575C13.0043 10.9648 12.9571 10.9138 12.9502 10.8302C12.9424 10.7457 13.0253 10.6649 13.1099 10.6655C13.1841 10.6661 13.2385 10.7199 13.2403 10.8007Z" fill="#11A147"/>
<path fill-rule="evenodd" clip-rule="evenodd" d="M11.4757 9.81679C11.5467 9.874 11.4606 9.91172 11.4574 9.95981C11.3983 9.93246 11.3245 9.94347 11.2767 9.8916C11.2258 9.83628 11.2352 9.77372 11.2685 9.71274C11.3053 9.6483 11.3619 9.62064 11.4313 9.64516C11.4948 9.66779 11.5423 9.71054 11.5115 9.79101C11.4628 9.79981 11.4228 9.73569 11.3543 9.77875C11.3999 9.79981 11.4546 9.77058 11.4757 9.81679Z" fill="#0C9F43"/>
<path fill-rule="evenodd" clip-rule="evenodd" d="M9.76565 9.16924C9.72416 9.21797 9.69366 9.19911 9.66506 9.19974C9.6374 9.19974 9.60785 9.17679 9.57359 9.20539C9.60439 9.25569 9.67889 9.22331 9.70781 9.27329C9.70372 9.28052 9.70184 9.29026 9.69649 9.29529C9.655 9.32799 9.58868 9.24877 9.5629 9.31416C9.53933 9.37042 9.60125 9.35093 9.62797 9.36036C9.65814 9.37231 9.69555 9.36791 9.73201 9.40877C9.64746 9.44586 9.54655 9.42857 9.51166 9.38771C9.45665 9.32327 9.49532 9.20885 9.53712 9.15164C9.58648 9.08406 9.67669 9.15007 9.76565 9.16924Z" fill="#19A44D"/>
<path fill-rule="evenodd" clip-rule="evenodd" d="M10.3016 9.44272C10.2302 9.43518 10.1491 9.38488 10.1287 9.50244C10.1281 9.50622 10.1033 9.51156 10.0957 9.50653C10.0872 9.50182 10.0825 9.48421 10.0841 9.47415C10.1026 9.39966 10.1121 9.31981 10.1451 9.25286C10.1834 9.17742 10.2485 9.24123 10.3022 9.24846C10.3664 9.25695 10.4019 9.29592 10.395 9.36351C10.3887 9.42166 10.3447 9.43738 10.3016 9.44272Z" fill="#0D9F44"/>
<path fill-rule="evenodd" clip-rule="evenodd" d="M11.1519 9.62284C11.145 9.71745 11.0984 9.78283 11.0038 9.78566C10.9193 9.78881 10.8718 9.7294 10.8737 9.64515C10.8762 9.554 10.9205 9.48798 11.0189 9.48516C11.1091 9.48201 11.144 9.54268 11.1519 9.62284Z" fill="#0FA046"/>
<path fill-rule="evenodd" clip-rule="evenodd" d="M9.03293 9.28146C9.02255 9.30378 9.01407 9.33553 8.98421 9.3283C8.93234 9.31604 8.9556 9.26606 8.94303 9.23337C8.90468 9.19597 8.91474 9.24752 8.90279 9.25695C8.89839 9.28021 8.90908 9.31573 8.87764 9.32044C8.83898 9.32516 8.8481 9.28807 8.84904 9.26606C8.85218 9.22017 8.85281 9.17208 8.86539 9.12807C8.87639 9.09035 8.83647 9.02088 8.91159 9.02025C8.97792 9.01994 8.96346 9.08752 8.97195 9.12807C8.98075 9.17459 8.98546 9.19439 9.0235 9.14819C9.06279 9.13781 9.07096 9.16642 9.08008 9.19408C9.08511 9.23431 9.06719 9.26229 9.03293 9.28146Z" fill="#0EA044"/>
<path fill-rule="evenodd" clip-rule="evenodd" d="M12.3809 10.436C12.4042 10.436 12.4278 10.4668 12.4504 10.4404C12.4677 10.4206 12.4523 10.4011 12.4369 10.3851C12.4252 10.3732 12.4138 10.3608 12.403 10.348C12.3709 10.3093 12.3259 10.2723 12.3703 10.2163C12.4105 10.1651 12.4573 10.1776 12.5039 10.21C12.5123 10.2264 12.5095 10.2421 12.5007 10.2569C12.4664 10.3106 12.5303 10.3433 12.529 10.3892C12.5387 10.4323 12.545 10.4756 12.4976 10.5005C12.4385 10.5319 12.3929 10.503 12.3495 10.4653C12.3448 10.4404 12.3539 10.4282 12.3809 10.436Z" fill="#10A146"/>
<path fill-rule="evenodd" clip-rule="evenodd" d="M11.4757 9.81678C11.4514 9.83376 11.4027 9.77875 11.4043 9.82024C11.4074 9.8938 11.3707 9.8872 11.3364 9.86551C11.2902 9.8369 11.2877 9.78786 11.3169 9.7426C11.3452 9.69828 11.3851 9.6725 11.4335 9.70865C11.4631 9.73034 11.4854 9.76303 11.5109 9.79101L11.4757 9.81678Z" fill="#ECF7F0"/>
<path fill-rule="evenodd" clip-rule="evenodd" d="M9.05368 9.20697C9.0446 9.1875 9.03452 9.16851 9.0235 9.15007C9.0345 9.1221 9.04456 9.09381 9.05776 9.06677C9.06971 9.04131 9.09045 9.02717 9.11969 9.0366C9.15238 9.0476 9.14986 9.07275 9.14798 9.09915C9.14106 9.17606 9.13467 9.25297 9.1288 9.32987C9.08291 9.35911 9.07128 9.33239 9.06373 9.29278C9.05808 9.26418 9.07285 9.23337 9.05368 9.20697Z" fill="#17A34C"/>
<path fill-rule="evenodd" clip-rule="evenodd" d="M12.5299 10.3889C12.5017 10.36 12.4715 10.3326 12.4451 10.3018C12.4143 10.2653 12.4262 10.243 12.4721 10.2371C12.5384 10.2518 12.579 10.2839 12.5595 10.36C12.5503 10.3696 12.5404 10.3792 12.5299 10.3889Z" fill="#D7EFE0"/>
<path fill-rule="evenodd" clip-rule="evenodd" d="M12.5595 10.36C12.529 10.3204 12.5208 10.2638 12.4721 10.2371L12.5048 10.2097C12.5576 10.2471 12.6541 10.2685 12.5595 10.36Z" fill="#2BAB5B"/>
<path fill-rule="evenodd" clip-rule="evenodd" d="M12.8653 10.6231C12.8613 10.6205 12.8559 10.6193 12.854 10.6158C12.8289 10.5693 12.7456 10.5275 12.7739 10.4863C12.8094 10.4367 12.8465 10.4954 12.866 10.5379C12.8748 10.5558 12.8855 10.5734 12.8955 10.5919C12.885 10.6024 12.875 10.6128 12.8653 10.6231Z" fill="#E6F5EC"/>
<path fill-rule="evenodd" clip-rule="evenodd" d="M12.3809 10.436C12.3713 10.4459 12.3608 10.4557 12.3495 10.4656C12.3363 10.4562 12.3181 10.4495 12.3096 10.436C12.2936 10.4055 12.2477 10.365 12.3008 10.3411C12.3454 10.3197 12.3454 10.3766 12.3599 10.4043C12.3659 10.4159 12.3734 10.4257 12.3809 10.436Z" fill="#29AA59"/>
<path fill-rule="evenodd" clip-rule="evenodd" d="M9.05368 9.20697C9.09957 9.22489 9.07537 9.26324 9.07599 9.29184C9.07851 9.33113 9.09234 9.34434 9.12912 9.33051C9.05242 9.40469 9.06216 9.30567 9.03262 9.28367C9.04047 9.25758 9.04645 9.23212 9.05368 9.20697Z" fill="#DDF1E4"/>
<path fill-rule="evenodd" clip-rule="evenodd" d="M8.90122 9.25726V9.15604C8.9446 9.16987 8.94586 9.20037 8.94146 9.23369L8.90122 9.25726Z" fill="#6FC690"/>
<path fill-rule="evenodd" clip-rule="evenodd" d="M8.11789 9.15353C8.12229 9.10764 8.10029 9.04791 8.17856 9.05294C8.23577 9.0564 8.27726 9.07934 8.2804 9.14473C8.28355 9.21514 8.24237 9.24374 8.1773 9.24846C8.09463 9.25506 8.12826 9.18999 8.11789 9.15353Z" fill="#F5FBF7"/>
<path fill-rule="evenodd" clip-rule="evenodd" d="M11.7428 9.84507C11.7755 9.86299 11.8255 9.86645 11.8362 9.91486C11.8415 9.94 11.8199 9.95667 11.7975 9.94944C11.756 9.93686 11.701 9.93623 11.6954 9.87777C11.6938 9.86079 11.712 9.83942 11.7428 9.84507Z" fill="#EFF8F3"/>
<path fill-rule="evenodd" clip-rule="evenodd" d="M10.7234 9.45844C10.7149 9.49113 10.692 9.50245 10.6656 9.4927C10.6301 9.47981 10.5729 9.49396 10.5722 9.43172C10.571 9.39934 10.593 9.3896 10.6225 9.39934C10.6615 9.41192 10.7087 9.41035 10.7234 9.45844Z" fill="#DEF2E5"/>
<path fill-rule="evenodd" clip-rule="evenodd" d="M7.7869 9.07149C7.8177 9.07526 7.86642 9.05891 7.86328 9.11141C7.86014 9.1573 7.81361 9.15007 7.78029 9.1507C7.75358 9.15164 7.71523 9.16547 7.71271 9.11738C7.71083 9.06017 7.75546 9.07809 7.7869 9.07149Z" fill="#F3FAF5"/>
<path fill-rule="evenodd" clip-rule="evenodd" d="M7.38926 9.11518C7.44615 9.11895 7.47444 9.1529 7.47664 9.20634C7.47979 9.25412 7.45621 9.29498 7.40717 9.29938C7.35059 9.30473 7.32513 9.26166 7.32199 9.20917C7.31884 9.16076 7.33771 9.12555 7.38926 9.11518Z" fill="#F3FAF6"/>
<path fill-rule="evenodd" clip-rule="evenodd" d="M13.1778 10.8117C13.1696 10.8638 13.1382 10.9006 13.0775 10.9006C13.0288 10.9 13.0106 10.8645 13.0156 10.8214C13.0203 10.7629 13.0552 10.7252 13.1146 10.7262C13.1614 10.7274 13.1797 10.7611 13.1778 10.8117Z" fill="#F9FCFA"/>
<path fill-rule="evenodd" clip-rule="evenodd" d="M10.2277 9.28807C10.2595 9.30756 10.3233 9.28744 10.3324 9.35031C10.3352 9.3742 10.3088 9.38646 10.2878 9.38174C10.2466 9.37263 10.1891 9.3874 10.184 9.32107C10.1831 9.30064 10.1922 9.27864 10.2277 9.28807Z" fill="#E7F5EC"/>
<path fill-rule="evenodd" clip-rule="evenodd" d="M11.089 9.63038C11.083 9.68476 11.0563 9.72279 11.0013 9.72279C10.9473 9.72342 10.9281 9.6857 10.9306 9.63604C10.935 9.58134 10.9661 9.54488 11.0192 9.54268C11.072 9.54079 11.089 9.58291 11.089 9.63038Z" fill="#F5FBF7"/>
</g>
<defs>
<clipPath id="clip0_44_12">
<rect width="20.1176" height="20.1176" fill="white" transform="translate(0.0808868)"/>
</clipPath>
</defs>
</svg>
